# xmcd CD database file
#
# Track frame offsets:
#	150
#	23571
#	52710
#	80174
#	109676
#	135338
#	159301
#	189275
#	204916
#	227422
#	247394
#	266191
#	308087
#
# Disc length: 4406 seconds
#
# Revision: 1
# Processed by: cddbd v1.5.1PL2 Copyright (c) Steve Scherf et al.
# Submitted via: CDex 1.50beta9
#
DISCID=9e11340d
DTITLE=Olga Tañon - Olga viva, viva Olga
DYEAR=2002
DGENRE=Merengue
TTITLE0=Es mentiroso  (En Vivo)
TTITLE1=Presencié tu amor (En Vivo)
TTITLE2=El frío de tu adiós (En Vivo)
TTITLE3=Mi eterno amor secreto (En Vivo)
TTITLE4=El papel de malo (En Vivo)
TTITLE5=Muchacho malo (En Vivo)
TTITLE6=Medley Boogaloo (En Vivo)
TTITLE7=Me subes, me bajas, me subes (En Vivo)
TTITLE8=Contigo o sin ti (En Vivo)
TTITLE9=Ah ah o no (En Vivo)
TTITLE10=Basta ya! (En Vivo)
TTITLE11=Tu amor (En Vivo)
TTITLE12=Ya me cansé (En Vivo)
EXTD=YEAR: 2002
EXTT0=
EXTT1=
EXTT2=
EXTT3=
EXTT4=
EXTT5=
EXTT6=
EXTT7=
EXTT8=
EXTT9=
EXTT10=
EXTT11=
EXTT12=
PLAYORDER=
